<svg version="1.2" xmlns="http://www.w3.org/2000/svg" viewBox="0 0 406 512" width="406" height="512">
    <style>
        tspan {
            white-space: pre
        }

        .s0 {
            fill: #000000
        }
    </style>
    <path fill-rule="evenodd" class="s0"
        d="m106.21 63.02c46.23-57.12 99.51-88.18 139.52-37.37 45.97 2.41 65.68 72.2 34.06 106.61 2.27-0.02 4.4 0.44 6.25 1.45 2.42 1.33 4.25 3.46 5.17 6.5 0.92 2.98 0.92 6.85-0.38 11.66l-0.16 0.48c-0.58 1.7-1.08 3.86-1.59 6.08-2.12 9.19-4.45 19.29-14.93 18.73q-0.83-0.05-1.66-0.18c-0.38 18.99-9.67 27.73-21.81 39.15 3.26 4.75 6.52 9.54 10.44 13.97l0.01-0.02c20.54 18.49 73.47 22.19 96.08 34.81 7.16 3.98 13.62 9.06 18.82 15.93q1.13 1.48 2.14 2.97-0.76-0.05-1.4-0.05h-346.32q1-1.47 2.1-2.92c5.2-6.87 11.66-11.95 18.81-15.93 21.91-12.22 71.74-16.08 94.02-33.09 1.39-2.37 2.83-5.37 4.23-8.54 1.8-4.13 3.49-8.51 4.89-12.32-8.84-8.18-15.63-17.03-17.16-33.9l-1.05 0.02c-2.46-0.04-4.81-0.6-7.02-1.85-4.88-2.77-7.54-8.07-8.82-14.1-1.65-7.68-1.1-16.77-0.31-22.52q0.08-0.6 0.31-1.13c1.7-4.77 3.85-7.34 6.53-8.44-1.21-22.8 2.64-58.92-20.77-66zm-77.34 232.29h347.9c8.84 0 16.06 8.3 14.7 18.41l-19.23 143.63c-1.32 10.03-8.28 18.41-18.41 18.41h-302.02c-10.13 0-17.08-8.38-18.42-18.41l-19.23-143.63c-1.33-10.12 5.86-18.41 14.71-18.41zm194.36 88.58c0-12.21-9.88-22.09-22.09-22.09-12.21 0-22.09 9.88-22.09 22.09 0 12.21 9.88 22.09 22.09 22.09 12.21 0 22.09-9.88 22.09-22.09zm21.66-162.28c-12.02 11.19-25.1 16.63-38.4 16.63-13.92 0.01-27.85-5.94-40.81-17.47l-4.56-3.98-0.31-0.26c-1.2 3.19-2.56 6.62-3.99 9.87-1.95 4.44-4.03 8.62-6.05 11.64 21.82 44.24 86.32 45.78 107.23 0.25-5.26-5.32-9.23-11-13.11-16.68zm-5.33-153.2c-10.55 10.63-21.71 13.69-32.65 14.65-3.23 0.57-6.37 0.96-9.5 1.35-10.5 1.29-20.97 2.58-34.83 12.18-6.55 4.52-10.91 10-13.17 16.37-2.32 6.57-2.47 14.23-0.56 22.95 0.18 0.8 0.14 1.64-0.12 2.42-0.26 0.78-0.72 1.48-1.34 2.02-0.62 0.54-1.38 0.91-2.19 1.06-0.81 0.15-1.64 0.08-2.41-0.21l-5.31-1.94c-4.32-1.51-7.03-2.01-8.32 1.07-0.66 5.04-1.08 12.64 0.25 18.87 0.79 3.69 2.15 6.77 4.38 8.05q1.2 0.65 2.6 0.66c1.17 0.02 2.48-0.25 3.88-0.67q0.59-0.18 1.23-0.2c2.53-0.05 4.64 1.95 4.69 4.47 0.5 20.77 9.71 28.7 20.92 38.35l4.67 4.05c11.26 10.02 23.11 15.19 34.71 15.19 11.3-0.01 22.58-4.94 33.11-15.1l4.74-4.5c11.76-11.04 20.42-19.18 18.75-39-0.06-0.98 0.17-2 0.76-2.88q0.5-0.76 1.25-1.27 0.75-0.51 1.64-0.7 0.89-0.18 1.79-0.01 0.89 0.17 1.65 0.67 1.15 0.76 2.28 1.2l0.19 0.06q1.05 0.38 1.98 0.44c2.8 0.15 4.22-6.02 5.51-11.63 0.58-2.48 1.14-4.9 1.86-7 0.79-3 0.88-5.11 0.46-6.48q-0.28-0.87-0.8-1.15c-0.55-0.3-1.37-0.39-2.35-0.3-2.33 0.22-5.14 1.45-7.78 3.45q-0.38 0.29-0.8 0.49-0.42 0.2-0.88 0.31-0.45 0.11-0.92 0.13-0.47 0.02-0.94-0.06-0.89-0.16-1.67-0.64-0.77-0.49-1.3-1.23-0.52-0.75-0.73-1.63-0.2-0.89-0.05-1.79c4.32-25.21 2.34-41.64-3.03-52.84-4.7-9.82-12.21-15.77-20.35-20.22z" />
</svg>